<svg xmlns="http://www.w3.org/2000/svg" viewBox="0 0 900 566" width="100%" role="img" aria-label="Farmed animals in 2022 by species and the provenance flag on each country figure" font-family="Schibsted Grotesk, system-ui, sans-serif">
<defs><pattern id="cdots" width="6" height="6" patternUnits="userSpaceOnUse"><rect width="6" height="6" fill="#6B7BF0"/><circle cx="3" cy="3" r="1.15" fill="#FFFFFF" fill-opacity=".55"/></pattern><pattern id="cdiag" width="7" height="7" patternUnits="userSpaceOnUse" patternTransform="rotate(45)"><rect width="7" height="7" fill="#FFB020"/><rect width="2.2" height="7" fill="#FFFFFF" fill-opacity=".5"/></pattern><pattern id="ccross" width="7" height="7" patternUnits="userSpaceOnUse"><rect width="7" height="7" fill="#17A88A"/><path d="M0 3.5h7M3.5 0v7" stroke="#FFFFFF" stroke-opacity=".45" stroke-width="1.3"/></pattern></defs>
<rect width="900" height="566" fill="#FFFFFF"/>
<g transform="translate(0,6)">
<rect x="104" y="0" width="20" height="20" fill="#1E1B2E"/>
<text x="114" y="15" text-anchor="middle" font-size="16" font-weight="600" fill="#FFFFFF">A</text>
<text x="132" y="15" font-size="18" fill="#1E1B2E">Official national figure</text>
<rect x="400" y="0" width="20" height="20" fill="url(#cdots)"/>
<text x="410" y="15" text-anchor="middle" font-size="16" font-weight="600" fill="#FFFFFF">E</text>
<text x="428" y="15" font-size="18" fill="#1E1B2E">Country estimate</text>
<rect x="104" y="28" width="20" height="20" fill="url(#cdiag)"/>
<text x="114" y="43" text-anchor="middle" font-size="16" font-weight="600" fill="#1E1B2E">I</text>
<text x="132" y="43" font-size="18" fill="#1E1B2E">FAO imputed</text>
<rect x="400" y="28" width="20" height="20" fill="url(#ccross)"/>
<text x="410" y="43" text-anchor="middle" font-size="16" font-weight="600" fill="#1E1B2E">X</text>
<text x="428" y="43" font-size="18" fill="#1E1B2E">External organisation</text>
</g>
<g transform="translate(0,26)">
<text x="92" y="226.0" text-anchor="end" font-size="20" font-weight="800" fill="#1E1B2E">Chickens</text>
<text x="92" y="246.0" text-anchor="end" font-size="17" font-family="JetBrains Mono, monospace" fill="#5A6167">26.11 bn</text>
<text x="92" y="266.0" text-anchor="end" font-size="17" font-family="JetBrains Mono, monospace" fill="#5A6167">83.9%</text>
<rect x="104.0" y="54.0" width="395.8" height="350.7" rx="3.0" fill="#1E1B2E"><title>Chickens: 51.0% official national figure</title></rect>
<text x="301.9" y="234.4" text-anchor="middle" font-size="22" font-weight="700" fill="#FFFFFF">51%</text>
<rect x="501.8" y="54.0" width="65.9" height="350.7" rx="3.0" fill="url(#cdots)"><title>Chickens: 8.7% country estimate</title></rect>
<text x="534.7" y="234.4" text-anchor="middle" font-size="22" font-weight="700" fill="#FFFFFF">9%</text>
<rect x="569.7" y="54.0" width="312.3" height="350.7" rx="3.0" fill="url(#cdiag)"><title>Chickens: 40.3% fao imputed</title></rect>
<text x="725.8" y="234.4" text-anchor="middle" font-size="22" font-weight="700" fill="#1E1B2E">40%</text>
<text x="92" y="421.4" text-anchor="end" font-size="16" fill="#1E1B2E"><tspan font-weight="800">Cattle</tspan></text>
<rect x="104.0" y="407.7" width="577.5" height="20.9" rx="3.0" fill="#1E1B2E"><title>Cattle: 74.3% official national figure</title></rect>
<rect x="683.5" y="407.7" width="45.6" height="20.9" rx="3.0" fill="url(#cdots)"><title>Cattle: 6.1% country estimate</title></rect>
<rect x="731.1" y="407.7" width="134.5" height="20.9" rx="3.0" fill="url(#cdiag)"><title>Cattle: 17.5% fao imputed</title></rect>
<rect x="867.6" y="407.7" width="14.4" height="20.9" rx="3.0" fill="url(#ccross)"><title>Cattle: 2.1% external organisation</title></rect>
<text x="92" y="443.8" text-anchor="end" font-size="16" fill="#1E1B2E"><tspan font-weight="800">Sheep</tspan></text>
<rect x="104.0" y="431.6" width="596.3" height="18.0" rx="3.0" fill="#1E1B2E"><title>Sheep: 76.7% official national figure</title></rect>
<rect x="702.3" y="431.6" width="77.6" height="18.0" rx="3.0" fill="url(#cdots)"><title>Sheep: 10.2% country estimate</title></rect>
<rect x="781.8" y="431.6" width="70.5" height="18.0" rx="3.0" fill="url(#cdiag)"><title>Sheep: 9.3% fao imputed</title></rect>
<rect x="854.4" y="431.6" width="27.6" height="18.0" rx="3.0" fill="url(#ccross)"><title>Sheep: 3.8% external organisation</title></rect>
<text x="92" y="463.3" text-anchor="end" font-size="16" fill="#1E1B2E"><tspan font-weight="800">Goats</tspan></text>
<rect x="104.0" y="452.6" width="496.4" height="15.0" rx="3.0" fill="#1E1B2E"><title>Goats: 63.9% official national figure</title></rect>
<rect x="602.4" y="452.6" width="146.2" height="15.0" rx="3.0" fill="url(#cdots)"><title>Goats: 19.0% country estimate</title></rect>
<rect x="750.6" y="452.6" width="103.3" height="15.0" rx="3.0" fill="url(#cdiag)"><title>Goats: 13.5% fao imputed</title></rect>
<rect x="855.9" y="452.6" width="26.9" height="15.0" rx="3.0" fill="url(#ccross)"><title>Goats: 3.7% external organisation</title></rect>
<text x="92" y="480.5" text-anchor="end" font-size="16" fill="#1E1B2E"><tspan font-weight="800">Pigs</tspan></text>
<rect x="104.0" y="470.6" width="737.4" height="13.4" rx="3.0" fill="#1E1B2E"><title>Pigs: 94.8% official national figure</title></rect>
<rect x="843.4" y="470.6" width="2.7" height="13.4" rx="3.0" fill="url(#cdots)"><title>Pigs: 0.6% country estimate</title></rect>
<rect x="848.1" y="470.6" width="34.7" height="13.4" rx="3.0" fill="url(#cdiag)"><title>Pigs: 4.7% fao imputed</title></rect>
</g>
<text x="104" y="538" font-size="17" font-family="JetBrains Mono, monospace" fill="#5A6167" letter-spacing=".04em">ROW HEIGHT IS THE SHARE OF ALL 31.1 BILLION ANIMALS</text>
<text x="104" y="560" font-size="17" font-family="JetBrains Mono, monospace" fill="#5A6167" letter-spacing=".04em">ROW WIDTH IS ALWAYS 100 PER CENT &#183; FAOSTAT 2022</text>
</svg>